<svg width="46" height="46" viewBox="0 0 46 46" fill="none" xmlns="http://www.w3.org/2000/svg">
<rect x="0.5" y="0.5" width="45" height="45" rx="12" fill="#E61E5A"/>
<rect x="8.5" y="8.5" width="29" height="29" rx="14.5" fill="white"/>
<path d="M20.926 27.5V23.174H17.482V27.5H15.634V17.826H17.482V21.704H20.926V17.826H22.788V27.5H20.926ZM28.5683 27.528C28.2696 28.4427 27.8169 29.152 27.2103 29.656C26.6036 30.1693 25.7729 30.468 24.7183 30.552L24.5363 29.25C25.0216 29.1753 25.4089 29.068 25.6983 28.928C25.9969 28.7973 26.2349 28.62 26.4123 28.396C26.5896 28.172 26.7529 27.8733 26.9023 27.5H26.2863L23.9343 20.094H25.8383L27.4483 26.31L29.1283 20.094H30.9762L28.5683 27.528Z" fill="#E61E5A"/>
</svg>
