<?xml version="1.0" encoding="UTF-8" standalone="no"?>
<!-- Created with Inkscape (http://www.inkscape.org/) -->

<svg
   width="138.55292mm"
   height="138.5529mm"
   viewBox="0 0 138.55292 138.5529"
   version="1.1"
   id="svg1"
   xmlns="http://www.w3.org/2000/svg"
   xmlns:svg="http://www.w3.org/2000/svg">
  <defs
     id="defs1" />
  <g
     id="layer1"
     transform="translate(-37.161035,-77.658712)">
    <path
       id="path3"
       d="m 175.71395,146.93516 c 0,21.95236 -10.21062,41.5199 -26.14267,54.21189 -11.8337,9.43049 -26.82623,15.06456 -43.13379,15.06456 -16.307551,0 -31.300079,-5.63407 -43.133785,-15.06456 C 47.371654,188.45506 37.16104,168.88752 37.16104,146.93516 c 0,-38.25991 31.01654,-69.27645 69.27645,-69.27645 38.25992,0 69.27646,31.01654 69.27646,69.27645"
       style="fill:#cad5d5;fill-opacity:1;fill-rule:nonzero;stroke:none;stroke-width:0.0153267" />
    <path
       id="path4"
       d="m 135.55813,131.45525 c 0,16.08286 -13.03777,29.12063 -29.12064,29.12063 -16.082862,0 -29.12063,-13.03777 -29.12063,-29.12063 0,-16.08287 13.037768,-29.12063 29.12063,-29.12063 16.08287,0 29.12064,13.03776 29.12064,29.12063"
       style="fill:#a1b0b1;fill-opacity:1;fill-rule:nonzero;stroke:none;stroke-width:0.0153267" />
    <path
       id="path5"
       d="m 149.57128,201.14705 c -11.8337,9.43049 -26.82623,15.06456 -43.13379,15.06456 -16.307551,0 -31.300079,-5.63407 -43.133785,-15.06456 5.60189,-18.51152 22.793793,-31.98825 43.133785,-31.98825 20.34,0 37.5319,13.47673 43.13379,31.98825"
       style="fill:#a1b0b1;fill-opacity:1;fill-rule:nonzero;stroke:none;stroke-width:0.0153267" />
  </g>
</svg>
